<?xml version="1.0" encoding="utf-8"?>
<!-- Generator: Adobe Illustrator 24.1.3, SVG Export Plug-In . SVG Version: 6.00 Build 0)  -->
<svg version="1.1"
	 id="svg2" xmlns:cc="http://creativecommons.org/ns#" xmlns:dc="http://purl.org/dc/elements/1.1/" xmlns:rdf="http://www.w3.org/1999/02/22-rdf-syntax-ns#" xmlns:svg="http://www.w3.org/2000/svg"
	 xmlns="http://www.w3.org/2000/svg" xmlns:xlink="http://www.w3.org/1999/xlink" x="0px" y="0px" viewBox="0 0 1186.1 199"
	 style="enable-background:new 0 0 1186.1 199;" xml:space="preserve">
<style type="text/css">
	.st0{fill:#4C4D9F;}
</style>
<g>
	<path class="st0" d="M244.6,100.8L261,64.2l7.2,36.6H244.6 M476.7,5.1l-44.5,103.5L412.5,5.1h-38.3l-54.5,152.5L294.2,5.1h-47.8
		L174,169.5l10.8-68.7h-71.9l-5.7,35.4h30.2l-3.5,18.9c-17.2,7.1-46.4,4.4-58.9-18c-7.9-14.2-15.3-45.8,18-74.9
		c27.2-23.7,74.2-28,101.3-15.6c0,0,3.4-19.9,6-38.3c-52.1-18-92.6-3-119.7,13.8c-37.1,22.7-54.9,57.6-50,105
		c5.5,54.9,76.6,89.6,136.9,54.6c0.7-0.3,1-0.6,1.6-0.7l-5.8,12.8h40.5l25.5-56.5h44.8l9.8,56.5h66l33.6-105.5l27.6,105.5h25.8
		L481.2,77l17.5,117.5h38.7L523.3,5.1H476.7z"/>
	<polyline class="st0" points="537.4,194.6 645.5,194.6 652,154.2 584.4,154.2 589.7,120.5 648.6,120.5 655,80 595.6,80 600.7,46.5 
		668.4,46.5 674.8,6 567.5,6 537.4,194.6 	"/>
	<polyline class="st0" points="1072.7,65.3 1048.5,3.8 1004.1,3.8 1049.9,103.3 1035.7,192.4 1074.6,192.4 1086.4,113.6 1156.3,3.8 
		1110.9,3.8 1072.7,65.3 	"/>
	<path class="st0" d="M981.3,117.7c-10.4,31.2-35.6,49.4-56.1,40.1c-20.4-9.1-28.7-42-18.2-73.4c10.5-31.5,35.6-49.3,56-40.2
		C983.5,53.4,991.8,86.3,981.3,117.7 M966.2,6.8c-43-9.9-87.7,24.3-99.8,76.4c-11.9,52.2,13.1,102.5,56,112.5
		c43,9.8,87.6-24.4,99.8-76.5C1034.1,67,1009,16.7,966.2,6.8z"/>
	<path class="st0" d="M790.2,82.2c-21.3,0-26.8,0-26.8,0l5.9-35c0,0,0.8,0,25.2,0C821.9,47.2,816.3,82.2,790.2,82.2 M785.5,158.4
		c-21.4,0-34.2,0-34.2,0l6-37.6c0,0,8.1,0,32.4,0C820.6,120.8,819.7,158.4,785.5,158.4z M808.2,7.3c-20.9-0.3-72.6,0-72.6,0h0.4
		l-30,187.3c0,0,62.1,0,87.3,0c36,0,88.5-52.9,40.6-96.1C882.9,47.6,834.3,7.9,808.2,7.3z"/>
</g>
</svg>
