<svg xmlns="http://www.w3.org/2000/svg" viewBox="0 0 423 96"><defs><style>.cls-1{fill:#3e3b42;}.cls-2{fill:none;}</style></defs><g id="Layer_2" data-name="Layer 2"><g id="Layer_1-2" data-name="Layer 1"><path class="cls-1" d="M70.19,55c-11.39-2.21-15.46-3.94-16.68-7.14-1-2.68,2-5.41,10.91-5.49a55.86,55.86,0,0,1,14.52,1.76l1.87.5,1.94-6.18-1.3-.35a71,71,0,0,0-18.87-2c-15.95.16-25,5.29-22,12.47,2.4,5.82,10.65,9.79,25.79,12.53,10.27,2,14.29,4,15.43,7.45,1.27,3.86-3.1,6.27-11.41,6.29a59.79,59.79,0,0,1-16.83-2.57l-1.94-.6-.66,6.25,1.08.36c4.9,1.65,13.11,2.81,20,2.81,19.33,0,24.11-7,22.33-13C92.49,61.87,85.31,58,70.19,55Z"/><polygon class="cls-1" points="114.81 60.61 143.64 60.47 142.55 54.1 113.29 54.28 110.5 42.7 142.28 42.42 141.21 35.99 95.5 36.45 107.46 80.46 150.19 80.45 149.15 74.02 118.05 74.07 114.81 60.61"/><polygon class="cls-1" points="166.24 35.74 152.77 35.87 159.03 80.45 201.34 80.44 201.11 73.93 170.44 73.98 166.24 35.74"/><polygon class="cls-1" points="220.87 60.09 249.7 59.95 250.22 53.42 220.96 53.6 221.1 41.73 252.89 41.45 253.44 34.85 207.72 35.32 208.5 80.44 251.22 80.44 251.79 73.84 220.7 73.89 220.87 60.09"/><path class="cls-1" d="M302.21,40.3a53.54,53.54,0,0,1,14.52,1.61l1.63.47,4.85-6.52-1.13-.35c-1.54-.47-7.49-2-18.95-1.88C278,33.89,259.45,43.91,258.06,58s12,23.09,34.09,23.09c9.05,0,16.16-1.14,19.8-2.21l1.18-.34-1.22-6.4-1.8.51a59.88,59.88,0,0,1-14.82,1.77c-16.29,0-25.21-6.21-23.86-16.69C272.81,47,284.31,40.46,302.21,40.3Z"/><polygon class="cls-1" points="326.81 34.11 325.19 40.88 348.71 40.67 337.19 80.42 349.42 80.42 362.1 40.55 385.73 40.35 388.25 33.49 326.81 34.11"/><rect class="cls-2" width="423" height="96"/></g></g></svg>