<svg xmlns="http://www.w3.org/2000/svg" viewBox="0 0 423 96"><defs><style>.cls-1{fill:#3e3b42;}.cls-2{fill:none;}</style></defs><g id="Layer_2" data-name="Layer 2"><g id="Layer_1-2" data-name="Layer 1"><path class="cls-1" d="M97.18,55C85.94,52.76,82,51,81,47.82c-.84-2.67,2.31-5.41,11.26-5.51a54.52,54.52,0,0,1,14.39,1.74l1.84.5,2.35-6.2L109.53,38a69.59,69.59,0,0,0-18.72-2c-16,.2-25.35,5.35-22.86,12.53,2,5.81,10,9.79,25,12.5,10.13,2,14,4,14.93,7.46,1,3.87-3.51,6.28-11.82,6.3a58,58,0,0,1-16.66-2.56l-1.9-.6-1.07,6.25,1.06.36c4.78,1.65,12.92,2.81,19.81,2.81,19.33,0,24.57-7,23.19-13C119,61.83,112.1,57.91,97.18,55Z"/><polygon class="cls-1" points="176.15 35.7 114.72 36.44 116.17 42.87 139.69 42.63 146.19 80.45 158.42 80.45 153.08 42.49 176.71 42.24 176.15 35.7"/><path class="cls-1" d="M194,35.49l-22.95,45h12.62l6.54-13.55,23.65-.09,7.58,13.63h12.92L208.62,35.31Zm16.8,25.12-17.92.1L199,49.38c.76-1.46,1.5-3,2.27-4.71.77,1.52,1.63,3.09,2.67,4.75Z"/><path class="cls-1" d="M286.9,67.14a11.42,11.42,0,0,0-7.47-8.71c8-2.24,13.18-6.44,14.07-11.53.65-3.71-1.15-6.93-5.07-9-4.79-2.6-12-3.7-23.23-3.56a194.1,194.1,0,0,0-19.85,1.16l-1.34.17-2.87,44.8h12.13l1.77-19,7.36,0c7.89.14,11,2.09,12.22,7.77,1.46,6.44,2.43,9.57,3.38,10.79l.36.47h12.81L290.23,79C289.11,77.4,288.12,72.87,286.9,67.14Zm-6.59-19.47c-.66,4.52-7.1,7.49-16.4,7.55l-8.3.06L256.94,41a82.2,82.2,0,0,1,8.25-.42C272.57,40.5,281.18,41.71,280.31,47.67Z"/><polygon class="cls-1" points="298.77 34.23 297.55 40.98 321.07 40.73 311.89 80.42 324.12 80.42 334.45 40.59 358.08 40.35 360.2 33.49 298.77 34.23"/><rect class="cls-2" width="423" height="96"/></g></g></svg>